<svg version="1.2" xmlns="http://www.w3.org/2000/svg" viewBox="0 0 56 80" width="56" height="80">
	<title>rsvp-logo (1)</title>
	<style>
		.s0 { fill: #201e1e } 
		.s1 { fill: #231f20 } 
	</style>
	<path class="s0" d="m29.6 80h-3.4c-0.1 0-0.2-0.1-0.3-0.1-1-0.1-2.1-0.2-3.1-0.4-3.9-0.7-7.5-2.2-10.7-4.5-3.2-2.2-5.9-5-7.9-8.3-2.1-3.3-3.4-7.1-3.9-11-0.1-0.7-0.2-1.3-0.2-2v-27.5c0-0.1 0.1-0.2 0.1-0.4 0.2-1.2 0.3-2.4 0.5-3.6 1.2-5.7 3.9-10.6 8.2-14.6 4.6-4.4 10.2-6.9 16.5-7.5 0.4 0 0.9-0.1 1.3-0.1h2.5c0.1 0 0.3 0.1 0.4 0.1 3 0.2 6 0.8 8.7 2 6.4 2.6 11.2 7 14.4 13.1 1.5 2.8 2.4 5.9 2.8 9.1 0.1 0.6 0.2 1.2 0.2 1.8v27.9c0 0.1-0.1 0.2-0.1 0.3q-0.2 1.3-0.3 2.7c-0.7 4.3-2.5 8.4-5.2 11.9-2.5 3.4-5.8 6.1-9.5 8-2.9 1.5-6 2.5-9.2 2.9zm24.9-40v-12.4c0-1.7-0.2-3.3-0.5-5-1.1-5.5-3.7-10.3-7.8-14.1-6.4-6-14.1-8.3-22.8-7-5.8 0.9-10.8 3.6-14.8 7.9-4.9 5.2-7.4 11.4-7.5 18.5 0 8.1 0 16.2 0 24.4 0 0.8 0 1.7 0.1 2.5 0.3 3.4 1.3 6.6 2.8 9.6 2.4 4.5 5.7 8.1 10.1 10.7 3.6 2.2 7.5 3.4 11.7 3.7 2.9 0.2 5.9 0 8.7-0.8q8.8-2.4 14.4-9.6c3.6-4.7 5.5-10.1 5.5-16.1 0.2-4.1 0.1-8.2 0.1-12.3z"/>
	<path class="s0" d="m27.7 7.7c0-0.3 0-0.5 0-0.7 0-0.6 0-1.1 0-1.6 0-0.5-0.2-0.7-0.6-0.7q-0.6 0-0.6 0.6c0 0.6 0 1.1 0 1.7q0 0.3 0 0.6v0.2h-0.7c0-0.3 0-0.6 0-0.8 0-0.7 0-1.3 0-2 0-0.6 0.5-0.9 1.2-1 0.6 0 1.1 0.3 1.3 0.8 0 0.1 0.1 0.2 0.1 0.3 0 0.6 0 1.1 0 1.7q0 0.4 0 0.9z"/>
	<path class="s0" d="m31.9 5.7h0.6c0.1-0.8-0.5-1.5-1.4-1.5-0.7 0-1.1 0.3-1.3 0.8-0.2 0.6 0.1 1 0.7 1.3 0.1 0 0.2 0.1 0.3 0.1 0.2 0.1 0.3 0.1 0.4 0.2 0.1 0.1 0.3 0.3 0.2 0.4-0.1 0.1-0.3 0.3-0.4 0.3-0.2 0-0.5-0.1-0.6-0.3-0.2-0.5-0.4-0.4-0.8-0.3 0.1 0.7 0.5 1.1 1.1 1.2 0.6 0.1 1.2-0.1 1.4-0.7q0.3-0.8-0.6-1.2c-0.2 0-0.4-0.1-0.5-0.2-0.1 0-0.2-0.1-0.2-0.1-0.2-0.1-0.4-0.3-0.3-0.6 0.1-0.3 0.3-0.3 0.6-0.3 0.4 0 0.7 0.3 0.8 0.9z"/>
	<path class="s0" d="m14.2 8.9l1.7-1.1 0.5 0.8-1.3 0.8 0.3 0.5 1.3-0.8 0.4 0.7-1.6 1.2 0.3 0.5 2.3-1.4c-0.7-1-1.3-2.1-2-3.1l-2.3 1.4z"/>
	<path class="s0" d="m38.7 52.9c-0.2-0.1-0.4-0.2-0.7-0.3-0.5-0.2-0.9-0.4-1.4-0.6-1.2-0.4-2.5-0.3-3.7-0.2-0.2 0-0.5 0-0.7 0.1-1.5 0.1-3 0.3-4.6 0.3-3 0-5.9 0-8.9 0q-1.8 0-3.6 0h-0.5v-0.5c0.1 0 0.2 0 0.4 0 0.3 0 0.5-0.1 0.8-0.1 1.7-0.3 2.5-1.3 2.7-3 0-0.3 0-0.7 0-1v-19.3c0-0.7-0.1-1.4-0.4-2.1-0.5-1.1-1.5-1.5-2.6-1.6-0.2 0-0.4 0-0.6-0.1q-0.2 0-0.3 0v-0.5h13.1v0.5c-0.1 0-0.1 0-0.2 0-0.1 0-0.3 0-0.4 0.1q-2.1 0.3-2.4 2.4c-0.1 0.4-0.1 0.8-0.1 1.2q0 9.8 0 19.5c0 0.8 0.1 1.6 0.5 2.3 0.7 1.2 2.6 1.6 4 1 0.8-0.4 1.4-1 2-1.6 0.5-0.5 0.9-1.1 1.4-1.7q0.6-0.7 1.2-1.5c1.2-1.4 2.5-2.7 4.2-3.4 1-0.4 2-0.6 3.1-0.7 0.3 0 0.4 0.1 0.2 0.4-1.4 2.6-1.9 5.4-2.3 8.3-0.1 0.5-0.1 1-0.1 1.6-0.1 0.1-0.1 0.3-0.1 0.5z"/>
	<path class="s0" d="m7.5 35.4v2.6h-0.6v-2h-0.8v1.5h-0.6v-1.5h-1v2h-0.6v-1.3q0-0.2 0-0.3c0-0.3 0-0.5 0-0.8 0-0.1 0.1-0.3 0.2-0.3 0.9 0 1.9 0 2.8 0 0.2 0.1 0.4 0.1 0.6 0.1z"/>
	<path class="s0" d="m48.2 45.2h3.6v-2.6h-0.6v2h-1v-1.6h-0.6v1.5h-0.9v-2h-0.6z"/>
	<path class="s0" d="m38 70.4l0.4 0.7 1.3-0.8 0.3 0.5-1.3 0.8c0.2 0.3 0.3 0.5 0.5 0.8l1.7-1 0.3 0.5-2.2 1.4-1.9-3.1 2.3-1.4 0.3 0.5z"/>
	<path class="s0" d="m45.2 12.4l0.5-0.4 1.7 2.1-2.9 2.3-1.7-2.1 0.1-0.1c0.1-0.1 0.3-0.2 0.4-0.3l1.2 1.5 0.7-0.5-1-1.2 0.5-0.4 1 1.2 0.7-0.6c-0.3-0.3-0.5-0.7-0.8-1z"/>
	<path class="s0" d="m13.2 66.1l-1.7-2-2.8 2.4 1.7 2 0.5-0.4-1.3-1.5 0.7-0.6c0.2 0.3 0.5 0.5 0.7 0.8l0.3 0.4 0.5-0.4-1-1.2 0.7-0.5 1.3 1.5z"/>
	<path class="s0" d="m22.7 74.3h0.6c0.2 0.7 0.5 0.9 1 0.9 0.1 0 0.2-0.1 0.3-0.1 0.1-0.1 0.2-0.1 0.2-0.2 0.1-0.2 0-0.4-0.2-0.5-0.1-0.1-0.3-0.2-0.4-0.2-0.1-0.1-0.3-0.2-0.4-0.2-0.5-0.3-0.6-0.6-0.6-1 0.1-0.5 0.5-0.8 1-0.8 0.8-0.1 1.5 0.5 1.5 1.3h-0.7c0-0.1-0.1-0.2-0.1-0.3-0.1-0.3-0.4-0.4-0.7-0.4-0.2 0-0.3 0.2-0.4 0.3 0 0.1 0.1 0.3 0.2 0.4 0.2 0.1 0.3 0.2 0.5 0.3 0.2 0.1 0.4 0.2 0.5 0.3 0.5 0.3 0.6 0.9 0.3 1.4 0 0.1-0.1 0.2-0.2 0.2-0.4 0.3-1.1 0.4-1.7 0.1-0.5-0.4-0.8-0.9-0.7-1.5z"/>
	<path class="s0" d="m48.9 60.5v0.2c0.2 0 0.5 0 0.7 0q0.3-0.2 0.6-0.3c0.2-0.2 0.3-0.4 0.4-0.6 0.1-0.2 0.1-0.5 0.1-0.7-0.1-0.6-0.4-0.9-0.9-1-0.4-0.1-0.7 0.1-0.9 0.3-0.1 0.1-0.2 0.3-0.3 0.4-0.1 0.2-0.2 0.3-0.4 0.5-0.1 0.1-0.3 0.2-0.4 0.1-0.1 0-0.1-0.1-0.2-0.2 0-0.1-0.1-0.2-0.1-0.2 0-0.3 0.2-0.5 0.5-0.6 0.1 0 0.2 0 0.3-0.1h0.1q0-0.2 0-0.3c0-0.1 0-0.2 0-0.2-0.8-0.2-1.5 0.5-1.5 1.3 0 0.5 0.2 0.9 0.6 1 0.4 0.2 0.8 0 1.1-0.3 0.1-0.1 0.2-0.3 0.4-0.5 0.1-0.1 0.1-0.2 0.2-0.3 0.2-0.2 0.3-0.4 0.6-0.2 0.3 0.2 0.3 0.4 0.2 0.7-0.1 0.5-0.5 0.7-1 0.6 0 0.2 0 0.3-0.1 0.4z"/>
	<path class="s0" d="m5.1 50.5c0 0.1 0 0.2 0.1 0.3 0 0.1 0 0.2 0 0.2-0.5 0.2-0.8 0.5-0.8 1 0 0.2 0.1 0.4 0.4 0.5 0.3 0 0.4-0.1 0.5-0.3 0.1-0.1 0.1-0.3 0.1-0.4 0.1-0.2 0.1-0.4 0.2-0.5q0.3-0.8 0.9-0.6c0.4 0 0.8 0.3 0.9 0.8 0.2 0.8-0.2 1.6-1 1.7 0-0.2-0.1-0.4-0.1-0.6 0.1-0.1 0.2-0.1 0.3-0.2 0.4-0.2 0.5-0.4 0.3-0.8-0.1-0.1-0.2-0.3-0.3-0.3-0.1 0-0.3 0.1-0.3 0.2-0.1 0.2-0.1 0.3-0.2 0.5-0.1 0.3-0.1 0.5-0.2 0.6-0.2 0.4-0.5 0.7-0.9 0.7q-1.1 0-1.2-1.2c-0.1-0.6 0.3-1.5 1.3-1.6z"/>
	<path class="s0" d="m50.6 29.9c0-0.1-0.1-0.3-0.1-0.4 0.5-0.1 0.8-0.4 0.8-1 0-0.2-0.1-0.5-0.4-0.5-0.3-0.1-0.4 0.1-0.5 0.3-0.1 0.1-0.1 0.3-0.1 0.4-0.1 0.2-0.1 0.4-0.2 0.6-0.2 0.4-0.4 0.6-0.9 0.6-0.4 0-0.8-0.2-0.9-0.7-0.3-0.8 0.1-1.6 1-1.9 0 0.1 0 0.2 0.1 0.2 0 0.1 0.1 0.2 0.1 0.3-0.1 0.1-0.2 0.1-0.3 0.2-0.3 0.2-0.4 0.5-0.2 0.8 0 0.1 0.1 0.1 0.2 0.2 0.1 0 0.1 0.1 0.2 0.1 0.1 0 0.3-0.1 0.3-0.2 0.1-0.2 0.1-0.3 0.2-0.5 0-0.1 0-0.2 0.1-0.2 0.3-0.7 0.7-1.1 1.3-0.9 0.6 0.1 0.9 0.7 0.9 1.4-0.1 0.8-0.4 1.1-1.3 1.3-0.3 0-0.3 0-0.3-0.1z"/>
	<path class="s0" d="m7.2 22.2l-0.1 0.6c0.6 0.1 1.1-0.1 1.3-0.7 0.3-0.5 0.2-1.1-0.2-1.5-0.4-0.4-0.9-0.4-1.2-0.1-0.2 0.1-0.3 0.3-0.4 0.5-0.1 0.1-0.1 0.1-0.1 0.2q-0.1 0.1-0.3 0.3c-0.1 0.1-0.3 0.2-0.5 0.1-0.1 0-0.1-0.1-0.2-0.2-0.1-0.1-0.1-0.2-0.1-0.2-0.1-0.4 0.2-0.8 0.7-0.9q0.2 0 0.3 0h0.1v-0.6c-1.2-0.2-1.8 0.9-1.7 1.7 0 0.4 0.3 0.8 0.7 0.9 0.4 0.1 0.8 0 1.1-0.3 0.2 0 0.3-0.2 0.4-0.3 0.1-0.1 0.2-0.2 0.3-0.4 0.1-0.1 0.2-0.3 0.5-0.2 0.2 0.2 0.3 0.4 0.2 0.6-0.1 0.2-0.3 0.3-0.5 0.4-0.1 0.1-0.2 0.2-0.3 0.1z"/>
	<path class="s0" d="m29.3 72.4h-0.6c0 0.1 0 0.1 0 0.2q0 0.2 0 0.3 0 0.3 0 0.6c0 0.5 0 0.9 0 1.4q0 0.6-0.6 0.6-0.6 0-0.6-0.6c0-0.3 0-0.5 0-0.8v-1.7l-0.7 0.1c0 0.1 0 0.1 0 0.2q0 0.3 0 0.6c0 0.6 0 1.1 0 1.7 0 0.9 0.5 1.3 1.3 1.3 0.8 0 1.2-0.5 1.3-1.3 0-0.5 0-0.9 0-1.4 0-0.2 0-0.3 0-0.5q0-0.2 0-0.3c-0.1-0.3-0.1-0.4-0.1-0.4z"/>
	<path class="s0" d="m48.1 26.3v-0.1c0-0.2 0-0.3-0.1-0.5 0.2 0 0.5-0.1 0.7-0.1 0.5-0.1 1.1-0.2 1.6-0.2 0.5-0.1 0.7-0.3 0.7-0.7q0-0.6-0.6-0.6c-0.5 0-1 0.1-1.5 0.2-0.2 0-0.4 0.1-0.6 0.1-0.1 0-0.1 0-0.2 0 0 0-0.1 0-0.2 0 0-0.1 0-0.3-0.1-0.4v-0.3c0.3 0 0.6-0.1 0.8-0.1 0.6-0.1 1.2-0.2 1.8-0.2 0.6 0 1.1 0.4 1.2 1 0.1 0.7-0.1 1.2-0.7 1.4q-0.8 0.1-1.5 0.3c-0.2 0-0.4 0.1-0.6 0.1-0.2 0-0.3 0-0.5 0.1 0 0-0.1 0-0.2 0z"/>
	<path class="s0" d="m7.5 26.7l0.1-0.7h-0.1q-0.1 0-0.3 0c-0.2 0-0.4-0.1-0.6-0.1-0.5-0.1-1-0.1-1.5-0.2-0.5-0.1-0.6-0.4-0.5-0.8 0.1-0.3 0.4-0.5 0.9-0.4l2.3 0.3c0-0.2 0.1-0.4 0.1-0.7-0.3-0.1-0.6-0.1-0.8-0.1-0.6-0.1-1.2-0.2-1.7-0.2-0.7-0.1-1.2 0.3-1.3 1-0.1 0.7 0.2 1.3 0.8 1.5q0.9 0.2 1.8 0.3c0.3 0 0.6 0 0.8 0.1z"/>
	<path class="s0" d="m47.7 56.5c0-0.1 0-0.3 0.1-0.4 0-0.1 0-0.2 0-0.2h0.3c0.3 0 0.6 0.1 1 0.1 0.1 0 0.3 0 0.4 0.1 0.2 0 0.4 0.1 0.7 0.1 0.5 0.1 0.8-0.1 0.8-0.5 0.1-0.4-0.1-0.7-0.6-0.7-0.5-0.1-1-0.2-1.5-0.2-0.2 0-0.4-0.1-0.6-0.1h-0.1-0.1q0-0.2 0-0.3l0.1-0.3c0.2 0 0.4 0.1 0.6 0.1 0.4 0.1 0.8 0.1 1.3 0.2 0.2 0 0.5 0.1 0.7 0.1 0.7 0.2 1 0.7 0.9 1.4-0.1 0.7-0.6 1.2-1.3 1.1-0.6-0.1-1.2-0.1-1.8-0.2-0.4-0.2-0.6-0.3-0.9-0.3z"/>
	<path class="s0" d="m7.9 56.1c-0.3 0-0.5 0-0.8 0.1h-0.1c-0.2 0-0.3 0.1-0.5 0.1-0.4 0.1-0.8 0.1-1.1 0.2-0.4 0-0.6-0.2-0.7-0.5-0.1-0.3 0.1-0.6 0.4-0.7 0.1 0 0.3-0.1 0.4-0.1 0.6-0.1 1-0.2 1.5-0.2 0.2 0 0.5-0.1 0.7-0.1v-0.2c0-0.1 0-0.3-0.1-0.4-0.3 0.1-0.6 0.1-0.8 0.2-0.6 0.1-1.3 0.2-1.9 0.4-0.6 0.2-0.9 0.8-0.7 1.5 0.1 0.6 0.6 1.1 1.2 1 0.6-0.3 1.2-0.4 1.8-0.5 0.3 0 0.5-0.1 0.8-0.1 0-0.3 0-0.4-0.1-0.7z"/>
	<path class="s0" d="m7.5 30.2h-0.6v-0.9h-2.4v0.9h-0.6v-2.4h0.6v0.3c0 0.2 0 0.3 0 0.5h2.4v-0.8h0.6z"/>
	<path class="s0" d="m48.7 52.8v-0.8h2.4v0.5c0 0.1 0 0.2 0 0.4h0.6v-2.4h-0.6c0 0.3 0 0.6 0 0.8h-2.4v-0.8h-0.6v2.4h0.6z"/>
	<path class="s0" d="m22.7 5.2l-0.9 0.2c0-0.2-0.1-0.4-0.1-0.6l2.4-0.5c0 0.1 0 0.1 0 0.2 0 0.1 0.1 0.2 0.1 0.4l-0.9 0.2 0.5 2.3 0.9-0.1 0.1 0.6-2.4 0.5c0-0.2-0.1-0.4-0.2-0.6l0.9-0.2c-0.1-0.8-0.3-1.6-0.4-2.4z"/>
	<path class="s0" d="m30.5 72.8l0.9-0.1q0.1 0.8 0.3 1.5c0 0.3 0.1 0.5 0.1 0.8l-0.9 0.2c0 0.2 0.1 0.4 0.1 0.6l2.4-0.5c0-0.2-0.1-0.3-0.1-0.4v-0.1-0.1l-0.9 0.1c-0.1-0.3-0.1-0.6-0.2-1-0.1-0.5-0.2-0.9-0.3-1.4l0.9-0.2c0-0.1-0.1-0.3-0.1-0.4v-0.2l-2.4 0.5c0.1 0.4 0.1 0.5 0.2 0.7z"/>
	<path class="s0" d="m47.8 21.7l0.1 0.3c0.1 0.2 0.1 0.4 0.2 0.6l-0.6 0.2-0.8-2.3 0.6-0.2 0.3 0.8 2.3-0.7-0.2-0.8 0.6-0.2 0.2 0.5q0.3 0.9 0.6 1.8l-0.6 0.2-0.4-0.9z"/>
	<path class="s0" d="m7.7 58l0.3 0.8-2.2 0.8-0.3-0.8-0.6 0.2 0.8 2.3 0.6-0.2-0.3-0.8 2.3-0.8 0.3 0.8 0.6-0.2c-0.2-0.5-0.3-0.9-0.5-1.3-0.1-0.3-0.2-0.6-0.3-1z"/>
	<path class="s0" d="m48.8 48.1v1.1h-0.6v-2.9h0.6v1.1h1c0.2 0 0.3 0 0.5 0q0.6 0 1.2 0c0.3 0 0.3 0.1 0.3 0.3 0 0 0 0 0 0.1 0 0.2 0 0.3-0.3 0.3q-0.7 0-1.5 0c-0.3 0-0.5 0-0.8 0z"/>
	<path class="s0" d="m48.1 36.9v0.6c0.3 0 0.5 0 0.8 0 0.8 0 1.7 0 2.5 0 0.3 0 0.4-0.1 0.4-0.4 0-0.7 0-1.4 0-2 0-0.2 0-0.4-0.3-0.4-0.3 0-0.3 0.2-0.3 0.4 0 0.4 0 0.8 0 1.1q0 0.3 0 0.6h-3.1c0 0 0 0.1 0 0.1z"/>
	<path class="s0" d="m11 63.4l-0.5 0.3-0.6-1-2.6 1.5-0.3-0.6 2.6-1.5c-0.2-0.3-0.4-0.6-0.6-1l0.5-0.3 0.2 0.3c0.4 0.9 0.8 1.6 1.3 2.3z"/>
	<path class="s0" d="m46.9 19.3l-0.5-1 2.7-1.4-0.3-0.6-2.6 1.4-0.6-1-0.6 0.3c0.5 0.9 0.9 1.7 1.4 2.6z"/>
	<path class="s0" d="m4.5 45.7h-0.6v-2.7h3.6v0.6h-3z"/>
	<path class="s0" d="m18.8 9.7l2.8-1.1q-0.1-0.3-0.3-0.6l-1.1 0.4-1.1-2.8-0.6 0.3 1.1 2.8-1.1 0.4z"/>
	<path class="s0" d="m6.9 32.5v-1.1h0.6v2.9h-0.6v-1.1h-3v-0.7z"/>
	<path class="s0" d="m33.8 72.2l1.1-0.4 1.1 2.8 0.6-0.2-1.1-2.8 1.1-0.4c-0.1-0.2-0.1-0.4-0.2-0.6l-2.8 1.1c0.1 0.1 0.1 0.3 0.2 0.5z"/>
	<path class="s0" d="m16.6 69l0.6 0.3-1.5 2.7 1.8 1.1-0.3 0.5-2.4-1.4z"/>
	<path class="s0" d="m12.6 14.6l-2.9-2.2c-0.6 0.7-1.1 1.5-1.7 2.2l0.5 0.4 1.3-1.7 2.4 1.8z"/>
	<path class="s0" d="m45.5 67.2c0.3-0.4 0.6-0.8 1-1.2l0.4-0.5 0.5 0.4-1.7 2.1-2.8-2.3 0.4-0.5z"/>
	<path class="s0" d="m38.6 10.7l1.7-3.2-2.4-1.3c-0.1 0.2-0.2 0.4-0.3 0.5l1.8 1c-0.1 0.3-0.2 0.6-0.4 0.9-0.3 0.6-0.7 1.2-1 1.8z"/>
	<g>
		<path class="s1" d="m95.3 41.7h-8.1v6.1h9.7v3.7h-14v-22.7h13.9v3.7h-9.7v5.4h8.1z"/>
		<path class="s1" d="m104.3 45.9l2.9-11.3h4.2l-5.1 16.8h-3.9l-5.3-16.8h4.2z"/>
		<path class="s1" d="m120.2 51.7c-2.2 0-4.1-0.8-5.6-2.2-1.5-1.5-2.2-3.5-2.2-6.1v-0.4c0-1.6 0.3-3.2 0.8-4.5 0.5-1.3 1.5-2.4 2.5-3.2 1-0.8 2.4-1.1 3.7-1.1 2 0 3.7 0.8 4.9 2.2 1.2 1.5 1.9 3.5 1.9 6.1v1.9h-9.8c0.2 1.1 0.5 2.1 1.2 2.6 0.7 0.8 1.5 0.9 2.5 0.9 1.5 0 2.9-0.5 3.7-1.9l2 2.4c-0.7 0.9-1.5 1.6-2.5 2.2-0.7 0.9-1.9 1.1-3.1 1.1zm-0.5-13.7c-0.8 0-1.5 0.3-2 0.9-0.5 0.5-0.8 1.5-1 2.6h5.8v-0.3c0-0.9-0.3-1.9-0.7-2.4-0.6-0.6-1.3-0.8-2.1-0.8z"/>
		<path class="s1" d="m132.6 34.7l0.2 1.9c1-1.5 2.5-2.2 4.4-2.2q2.6 0 3.6 1.5c0.8 1.1 1.2 2.6 1.2 4.6v10.9h-4.1v-10.7c0-0.9-0.2-1.6-0.5-2.1-0.3-0.5-1-0.5-1.9-0.5-1.2 0-2 0.5-2.5 1.6v11.8h-4.1v-16.8c-0.1 0 3.7 0 3.7 0z"/>
		<path class="s1" d="m150 30.4v4h2.7v3.4h-2.7v8.3c0 0.5 0.2 1.1 0.3 1.3 0.2 0.2 0.7 0.3 1.2 0.3 0.5 0 0.8 0 1.2-0.2v3.5c-0.8 0.2-1.7 0.3-2.5 0.3-2.9 0-4.4-1.6-4.4-4.8v-9.1h-2.2v-3.4h2.2v-4h4.2z"/>
		<path class="s1" d="m170.2 43.2h-3.4v8.3h-4.2v-22.7h7.6c2.4 0 4.4 0.5 5.6 1.9 1.4 1.1 2 3 2 5 0 1.5-0.3 2.7-0.8 3.9-0.7 1.1-1.5 1.9-2.7 2.4l4.4 9.3v0.2h-4.6zm-3.4-4h3.4c1 0 1.9-0.3 2.5-0.9 0.5-0.5 0.8-1.5 0.8-2.4 0-1.1-0.3-1.9-0.8-2.6-0.5-0.5-1.4-0.9-2.5-0.9h-3.4z"/>
		<path class="s1" d="m191.9 45.6c0-0.9-0.3-1.5-0.8-2.1-0.5-0.6-1.5-0.9-3.1-1.5-1.6-0.6-2.7-1.1-3.6-1.5-2.4-1.5-3.6-3.4-3.6-5.6 0-1.3 0.3-2.2 1-3.4 0.7-0.9 1.5-1.6 2.7-2.2 1.2-0.6 2.5-0.8 3.9-0.8 1.5 0 2.9 0.3 3.9 0.9 1.2 0.5 2 1.5 2.7 2.4 0.7 0.9 1 2.2 1 3.7h-4.2c0-1.1-0.3-1.9-0.8-2.4-0.7-0.5-1.4-0.9-2.5-0.9-1 0-1.9 0.2-2.4 0.8-0.5 0.5-0.8 1.1-0.8 1.9 0 0.8 0.3 1.3 1 1.9 0.7 0.5 1.7 0.9 3.1 1.5 2.4 0.8 4.2 1.9 5.3 3 1.2 1.1 1.7 2.6 1.7 4.5 0 2.1-0.7 3.5-2 4.6-1.4 1.1-3.2 1.6-5.4 1.6-1.5 0-3.1-0.3-4.4-0.9-1.4-0.5-2.4-1.5-3.1-2.6-0.7-1.1-1-2.4-1-3.9h4.2c0 2.4 1.4 3.7 4.1 3.7 1 0 1.9-0.2 2.4-0.8 0.4-0.6 0.7-1.1 0.7-1.9z"/>
		<path class="s1" d="m206.6 45.8l4.7-17.1h4.7l-7.3 22.6h-4.4l-7-22.6h4.7z"/>
		<path class="s1" d="m222.4 43.5v8h-4.2v-22.7h8.1c1.5 0 2.9 0.3 4.1 0.9 1.2 0.5 2 1.5 2.7 2.6 0.7 1.1 1 2.4 1 3.9 0 2.2-0.7 3.9-2 5.1-1.4 1.3-3.4 1.9-5.8 1.9h-3.9zm0-3.8h3.7c1.2 0 2-0.3 2.5-0.9 0.5-0.5 0.8-1.5 0.8-2.4 0-1.1-0.3-2.1-0.8-2.7-0.7-0.8-1.4-1.1-2.5-1.1h-3.9v7.1z"/>
		<path class="s1" d="m254.9 45.6c0-0.9-0.3-1.5-0.8-2.1-0.5-0.6-1.5-0.9-3.1-1.5-1.6-0.6-2.7-1.1-3.6-1.5-2.4-1.5-3.6-3.4-3.6-5.6 0-1.3 0.3-2.2 1-3.4 0.7-0.9 1.5-1.6 2.7-2.2 1.2-0.6 2.5-0.8 3.9-0.8 1.5 0 2.9 0.3 3.9 0.9 1.2 0.5 2 1.5 2.7 2.4 0.7 0.9 1 2.2 1 3.7h-4.2c0-1.1-0.3-1.9-0.8-2.4-0.7-0.5-1.4-0.9-2.5-0.9-1 0-1.9 0.2-2.4 0.8-0.5 0.5-0.8 1.1-0.8 1.9 0 0.8 0.3 1.3 1 1.9 0.7 0.5 1.7 0.9 3.1 1.5 2.4 0.8 4.2 1.9 5.3 3 1.2 1.1 1.7 2.6 1.7 4.5 0 2.1-0.7 3.5-2 4.6-1.4 1.1-3.2 1.6-5.4 1.6-1.5 0-3.1-0.3-4.4-0.9-1.4-0.5-2.4-1.5-3.1-2.6-0.7-1.1-1-2.4-1-3.9h4.2c0 2.4 1.4 3.7 4.1 3.7 1 0 1.9-0.2 2.4-0.8 0.4-0.6 0.7-1.1 0.7-1.9z"/>
		<path class="s1" d="m267.5 45l2.9-10.6h4.4l-6.3 19.5-0.3 0.9c-0.8 2.2-2.4 3.4-4.6 3.4-0.7 0-1.2-0.2-1.9-0.3v-3.4h0.7c0.8 0 1.4-0.2 1.7-0.3 0.3-0.2 0.7-0.8 0.8-1.3l0.5-1.3-5.4-16.9h4.4z"/>
		<path class="s1" d="m284.8 46.9c0-0.5-0.2-0.9-0.7-1.3-0.5-0.3-1.4-0.5-2.4-0.9-3.7-0.9-5.4-2.6-5.4-5.1 0-1.5 0.5-2.7 1.7-3.7 1.2-1 2.5-1.5 4.4-1.5 2 0 3.6 0.5 4.7 1.5 1.2 0.9 1.7 2.2 1.7 3.9h-4.1c0-0.5-0.2-1.1-0.5-1.6-0.3-0.5-1-0.5-1.7-0.5-0.7 0-1.2 0.2-1.5 0.5-0.3 0.3-0.5 0.8-0.5 1.3 0 0.5 0.2 0.9 0.7 1.3 0.5 0.4 1.2 0.5 2.2 0.8 1 0.2 1.9 0.5 2.5 0.8 2.2 0.9 3.2 2.4 3.2 4.5 0 1.5-0.7 2.7-1.9 3.7-1.2 0.9-2.7 1.5-4.7 1.5-1.4 0-2.4-0.2-3.4-0.8-1-0.5-1.9-1.1-2.4-2.1-0.5-1-0.8-1.9-0.8-2.7h3.9c0 0.8 0.3 1.5 0.8 1.9 0.5 0.4 1.2 0.5 2 0.5 0.8 0 1.4-0.2 1.9-0.5 0.1-0.6 0.3-1.2 0.3-1.5z"/>
		<path class="s1" d="m296.3 30.4v4h2.7v3.4h-2.7v8.3c0 0.5 0.2 1.1 0.3 1.3 0.2 0.2 0.7 0.3 1.2 0.3 0.5 0 0.8 0 1.2-0.2v3.5c-0.8 0.2-1.7 0.3-2.5 0.3-2.9 0-4.4-1.6-4.4-4.8v-9.1h-2.2v-3.4h2.2v-4h4.2z"/>
		<path class="s1" d="m308.3 51.7c-2.2 0-4.1-0.8-5.6-2.2-1.5-1.5-2.2-3.5-2.2-6.1v-0.4c0-1.6 0.3-3.2 0.8-4.5 0.5-1.3 1.5-2.4 2.5-3.2 1-0.8 2.4-1.1 3.7-1.1 2 0 3.7 0.8 4.9 2.2 1.2 1.5 1.9 3.5 1.9 6.1v1.9h-9.8c0.2 1.1 0.5 2.1 1.2 2.6 0.7 0.8 1.5 0.9 2.5 0.9 1.5 0 2.9-0.5 3.7-1.9l2 2.4c-0.7 0.9-1.5 1.6-2.5 2.2-0.5 0.9-1.7 1.1-3.1 1.1zm-0.5-13.7c-0.8 0-1.5 0.3-2 0.9-0.5 0.5-0.8 1.5-1 2.6h5.8v-0.3c0-0.9-0.3-1.9-0.7-2.4-0.5-0.6-1.2-0.8-2.1-0.8z"/>
		<path class="s1" d="m320.9 34.7l0.2 1.9c1-1.5 2.5-2.2 4.4-2.2 2 0 3.4 0.9 4.1 2.6 1-1.6 2.5-2.6 4.6-2.6 1.7 0 2.9 0.5 3.7 1.6 0.8 1.1 1.2 2.6 1.2 4.8v10.7h-4.1v-10.7c0-0.9-0.2-1.6-0.5-2.1-0.3-0.3-1-0.8-1.9-0.8-1.2 0-2 0.5-2.5 1.9v11.5h-4.1v-10.7c0-0.9-0.2-1.6-0.5-2.1-0.3-0.3-1-0.8-1.9-0.8-1.2 0-2 0.5-2.5 1.6v11.8h-4.1v-16.7h3.9z"/>
	</g>
</svg>